<svg id="Capa_1" enable-background="new 0 0 512 512" height="512" viewBox="0 0 512 512" width="512" xmlns="http://www.w3.org/2000/svg"><g><path d="m299.867 170.164c6.144-9.023 9.741-19.912 9.741-31.627 0-31.065-25.273-56.337-56.337-56.337h-47.19c-10.469 0-18.956 8.487-18.956 18.956v162.458c0 5.043 2.008 9.877 5.582 13.433 3.554 3.538 8.362 5.523 13.374 5.523.028 0 43.632-.193 55.432-.193 34.564 0 62.684-28.12 62.684-62.685-.001-20.124-9.544-38.05-24.33-49.528zm-47.048-50.052c9.978 0 18.487 7.744 18.864 17.715.396 10.483-8.017 19.137-18.412 19.137-3.469 0-24.114.044-24.114.044-2.276 0-4.121-1.845-4.121-4.121v-28.655c0-2.276 1.845-4.121 4.121-4.121h23.662zm8.693 124.353c-5.988 0-19.931.049-32.344.097-2.282.009-4.131-1.839-4.131-4.121v-41.376c0-2.27 1.833-4.112 4.102-4.121 2.34-.009 31.811-.026 31.811-.026 13.859 0 25.567 11.341 25.332 25.198-.229 13.467-11.253 24.349-24.77 24.349z" fill="#60b7ff"/><path d="m392.703 183.214c.439 33.96 28.208 61.446 62.262 61.446 8.21 0 15.877-1.579 22.696-5.031l20.855 31.826c-12.969 7.426-27.821 11.118-43.551 11.118-54.48 0-98.941-43.718-100.154-97.916-1.234-54.982 42.829-101.169 97.811-102.424 19.359-.45 38.154 4.612 54.512 14.611 2.134 1.307 2.74 4.142 1.339 6.223l-17.1 25.31c-.868 1.286-2.594 1.674-3.922.868-10.459-6.411-22.549-9.57-34.995-9.078-33.481 1.318-60.193 29.547-59.753 63.047z" fill="#60b7ff"/><path d="m452.454 120.168c12.446-.492 24.536 2.667 34.995 9.078 1.328.805 3.054.418 3.922-.868l17.1-25.31c1.402-2.081.795-4.916-1.339-6.223-3.379-2.065-6.867-3.907-10.437-5.547-.094.792-.367 1.578-.839 2.3l-10.415 15.921c-.402.614-1.177.852-1.86.582-51.848-20.505-107.042 19.088-106.33 73.316.547 42.289 35.408 76.696 77.713 76.696 5.744 0 11.232-.625 16.422-1.864l11.884 19.958c5.308-1.733 10.408-3.982 15.245-6.751l-20.855-31.826c-6.819 3.451-14.486 5.031-22.696 5.031-34.054 0-61.822-27.486-62.262-61.446-.439-33.501 26.273-61.73 59.752-63.047z" fill="#62a4fb"/><path d="m38.61 279.196 12.124-36.353h59.316l12.009 36.34c.668 2.021 2.557 3.386 4.685 3.386h29.458c3.512 0 5.994-3.438 4.888-6.771 0 0-59.388-178.994-59.56-179.41-3.506-8.523-11.721-14.024-20.934-14.024h-.023c-7.333 0-14.302 3.495-18.449 9.543-1.216 1.773-2.243 3.675-2.919 5.704l-58.941 178.192c-1.102 3.332 1.379 6.767 4.889 6.767h28.775c2.125 0 4.01-1.359 4.682-3.374zm43.865-119.796 14.152 42.825c.441 1.333-.552 2.707-1.956 2.707h-28.435c-1.406 0-2.399-1.378-1.955-2.712l14.282-42.825c.628-1.881 3.29-1.878 3.912.005z" fill="#60b7ff"/><path d="m299.867 170.164c6.144-9.023 9.741-19.912 9.741-31.627 0-31.065-25.273-56.337-56.337-56.337h-20.604c31.065 0 56.338 25.272 56.338 56.337 0 11.715-3.598 22.604-9.741 31.627 14.787 11.477 24.33 29.404 24.33 49.528 0 34.565-28.12 62.685-62.684 62.685-6.632 0-23.159.06-36.438.113.534.045 1.07.079 1.61.079.028 0 43.632-.193 55.432-.193 34.564 0 62.684-28.12 62.684-62.685-.002-20.123-9.545-38.05-24.331-49.527z" fill="#62a4fb"/><path d="m161.089 275.799s-59.388-178.994-59.56-179.41c-3.506-8.523-11.721-14.024-20.934-14.024h-.023c-3.629 0-7.168.859-10.321 2.457 4.726 2.398 8.56 6.428 10.675 11.568.172.416.328.838.469 1.265l59.091 178.145c1.106 3.333-1.376 6.771-4.888 6.771h20.604c3.511-.001 5.993-3.439 4.887-6.772z" fill="#62a4fb"/><path d="m198.304 429.799c-25.217 0-45.733-20.516-45.733-45.733v-109.566c0-25.217 20.515-45.733 45.733-45.733h267.963c25.217 0 45.733 20.516 45.733 45.733v109.566c0 25.217-20.516 45.733-45.733 45.733z" fill="#fd8087"/><path d="m466.267 228.767h-19.573c25.217 0 45.733 20.516 45.733 45.733v109.566c0 25.217-20.516 45.733-45.733 45.733h19.573c25.217 0 45.733-20.516 45.733-45.733v-109.566c0-25.217-20.516-45.733-45.733-45.733z" fill="#ee6161"/><path d="m183.86 274.5v109.567c0 7.978 6.467 14.445 14.445 14.445h126.255l7.726-20.604 7.726 20.604h39.9l6.124-3.091 11.117 3.091h18.621l11.242-5.151 6.055 5.151h33.195c7.978 0 14.445-6.467 14.445-14.445v-109.567c0-7.978-6.467-14.445-14.445-14.445h-42.322l-16.138 5.151-2.806-5.151h-64.988l-7.726 10.302-7.726-10.302h-126.256c-7.977 0-14.444 6.467-14.444 14.445z" fill="#eaf6ff"/><path d="m466.267 260.055h-20.604c7.978 0 14.445 6.467 14.445 14.445v109.567c0 7.978-6.467 14.445-14.445 14.445h20.604c7.978 0 14.445-6.467 14.445-14.445v-109.567c0-7.978-6.468-14.445-14.445-14.445z" fill="#c4e2ff"/><g fill="#678d98"><path d="m405 260.055c-6.926 9.667-12.007 16.425-15.68 21.311-7.283 9.687-9.013 11.988-7.6 16.493.771 2.456 2.697 4.405 5.115 5.202 1.037.347 2.099.703 16.373.703 5.565 0 13.14-.053 23.504-.184 4.267-.053 7.682-3.555 7.629-7.822-.053-4.234-3.501-7.63-7.724-7.63-.033 0-.066 0-.099.001-7.917.099-16.34.161-23.077.166 4.554-6.07 11.36-15.23 20.502-28.241h-18.943z"/><path d="m258.072 375.121c-15.938 0-28.903-12.966-28.903-28.903v-33.868c0-15.938 12.966-28.903 28.903-28.903s28.904 12.966 28.904 28.903v33.868c0 15.937-12.966 28.903-28.904 28.903zm0-76.223c-7.417 0-13.451 6.034-13.451 13.451v33.868c0 7.416 6.034 13.451 13.451 13.451s13.451-6.034 13.451-13.451v-33.868c.001-7.416-6.034-13.451-13.451-13.451z"/><path d="m324.559 260.055h15.453v138.456h-15.453z"/><g><path d="m434.34 350.02c0-15.352-12.489-27.841-27.842-27.841-13.274 0-24.763 9.443-27.319 22.454-.822 4.187 1.905 8.247 6.092 9.07 4.188.819 8.248-1.904 9.071-6.093 1.136-5.782 6.248-9.979 12.156-9.979 6.831 0 12.389 5.557 12.389 12.388 0 6.832-5.556 12.389-12.386 12.389-4.267 0-7.726 3.459-7.726 7.726s3.459 7.726 7.726 7.726c6.831 0 12.389 5.556 12.389 12.386 0 2.16-.563 4.279-1.632 6.146l-1.483 2.117h17.297c.828-2.664 1.27-5.447 1.27-8.263 0-7.903-3.316-15.042-8.623-20.114 5.306-5.07 8.621-12.209 8.621-20.112z"/><path d="m395.771 396.452c-.8-1.378-1.318-2.881-1.54-4.47-.084-.599-.124-1.166-.124-1.733 0-4.268-3.459-7.726-7.726-7.726s-7.726 3.459-7.726 7.726c0 1.273.092 2.575.273 3.874.21 1.499.543 2.963.985 4.389h17.241z"/></g></g></g></svg>